<svg width="158" height="59" viewBox="0 0 158 59" fill="none" xmlns="http://www.w3.org/2000/svg">
<g id="Group">
<path id="Vector" d="M157.644 51.1082V49.8683C157.644 49.46 157.644 49.0518 157.644 48.6284C157.644 48.205 157.644 47.8724 157.644 47.4944V47.4037C157.644 46.814 157.644 46.2394 157.568 45.6648C157.493 45.0902 157.568 44.4854 157.462 43.8957C157.357 43.306 157.462 42.7164 157.341 42.1267V41.7638C157.341 41.7638 157.341 41.6277 157.341 41.5672C157.341 41.159 157.341 40.7658 157.236 40.3575C157.13 39.9493 157.084 39.3445 157.024 38.8455C156.903 37.8324 156.812 36.8194 156.661 35.8214C156.661 35.3678 156.495 34.9294 156.419 34.4758C156.344 34.0222 156.328 33.7198 156.268 33.3569C156.207 32.994 156.071 32.4949 155.981 32.0564C155.708 30.6805 155.421 29.3348 155.089 27.9891C154.968 27.5203 154.892 27.0062 154.756 26.477C154.62 25.9478 154.559 25.9176 154.484 25.6303C154.408 25.343 154.272 24.7685 154.151 24.3451C153.864 23.4076 153.486 22.5458 153.168 21.6385C152.987 21.1396 152.851 20.5952 152.654 20.1265C152.654 19.8997 152.473 19.7031 152.382 19.4915L152.019 18.6901C151.402 17.2559 150.695 15.862 149.902 14.5168C149.187 13.3124 148.372 12.1694 147.468 11.0996C146.648 10.1315 145.731 9.24995 144.731 8.4687C143.801 7.7461 142.786 7.1417 141.707 6.66937C141.177 6.43479 140.632 6.23772 140.074 6.07965C139.516 5.92831 138.951 5.80719 138.381 5.71678L106.794 1.18066C108.043 1.3586 109.266 1.68345 110.438 2.14839C111.61 2.61661 112.726 3.21509 113.765 3.93258C114.852 4.69086 115.865 5.55159 116.789 6.50302C117.794 7.53731 118.71 8.65524 119.525 9.84466C120.421 11.1453 121.229 12.5041 121.945 13.912L122.353 14.6831C122.686 15.3484 122.958 16.0894 123.26 16.7849C123.804 18.0399 124.334 19.3251 124.772 20.6557C125.029 21.3815 125.256 22.1677 125.483 22.8935C125.876 24.1787 126.239 25.4943 126.572 26.8249C126.753 27.6111 126.95 28.3369 127.116 29.1685C127.403 30.5747 127.66 31.9809 127.887 33.4022C128.023 34.2792 128.189 35.1713 128.31 36.0482C128.31 36.0482 128.31 36.1843 128.31 36.2448C128.552 38.1046 128.719 39.9644 128.84 41.7788C128.945 43.6084 129.006 45.3927 129.006 47.1315C129.006 48.8704 129.006 50.5638 128.824 52.1817L157.387 58.2298V57.6704V57.1109C157.387 56.9295 157.387 56.7329 157.387 56.5515V55.9769V55.0546V54.1323C157.387 53.8147 157.387 53.4972 157.387 53.1948V52.9377C157.387 52.7109 157.387 52.469 157.387 52.2422C157.387 52.0154 157.644 51.5164 157.644 51.1082Z" fill="url(#paint0_linear_114_8860)"/>
<path id="Vector_2" d="M136.748 4.73397H136.899H137.564L138.275 4.82469L106.688 0.288574H106.401H106.099H105.811H105.509H102.727H101.971L101.2 0.394428L100.413 0.530506H100.307L99.6119 0.681719C99.3095 0.681719 99.0222 0.817793 98.7198 0.908515L97.8125 1.16554L97.0868 1.40747H96.9658L96.0284 1.75525L94.9094 2.20885L93.7754 2.73807L93.594 2.82879L92.717 3.26729C92.3239 3.46385 91.9307 3.69065 91.5225 3.91745L91.0991 4.15939L90.6606 4.41645L90.2221 4.67347L89.7836 4.94563C87.8029 6.1855 85.8826 7.4254 83.9925 8.66527C82.1025 9.90515 80.2275 11.1752 78.398 12.4151C76.5684 13.655 74.7691 14.91 73.0302 16.1347L67.8591 19.7787L62.9147 23.3925L61.6446 24.2695C60.5408 25.0407 59.437 25.7816 58.3635 26.5376L56.6549 27.6716C55.7477 28.2764 54.8404 28.8812 53.9634 29.4407C53.3889 29.8187 52.8294 30.1362 52.2549 30.4991C51.4232 31.0132 50.5765 31.5424 49.7751 32.0111C48.5655 32.7218 47.3861 33.3871 46.2369 33.9768H46.1009C44.8307 34.6269 43.606 35.2016 42.3964 35.7156H42.2754C41.0355 36.2297 39.8259 36.6682 38.6465 37.0311C37.4753 37.3738 36.2834 37.6414 35.0781 37.8324C34.5071 37.9228 33.9317 37.9834 33.3544 38.0139C32.7949 38.0139 32.2355 38.0139 31.676 38.0139H31.5853C31.041 38.0139 30.4815 38.014 29.9372 37.893H29.8465C29.2824 37.8267 28.7221 37.7308 28.1681 37.6057L31.5551 38.3617L32.2355 38.5129L33.0217 38.6943H33.2637L36.7111 39.4655L38.1173 39.783L39.3572 40.0552L40.2039 40.2366L41.716 40.5692L49.382 42.2778L50.5463 42.5349L51.514 42.7466L54.538 43.427L57.2295 44.0167L58.2879 44.2586L59.18 44.4552H59.2707L60.1477 44.6517L63.9127 45.4834H64.0034H64.2907L64.835 45.5892H65.3642H65.591H65.9086H66.4529H67.5567H68.101H68.6605H69.1292H69.5979L70.0667 45.5136L70.5354 45.4229H70.6866H70.8227H70.9588H71.0948L71.8055 45.2415L72.5313 45.0449L73.2571 44.8332L73.9224 44.6064L74.8598 44.2586L75.8124 43.8655L76.765 43.4421L77.3396 43.17L77.6269 43.0339L79.1389 42.2174L80.6509 41.3252H80.7568L80.8777 41.2497L82.2537 40.4181L83.8867 39.3596L84.2647 39.1026L84.5822 38.8909C85.2626 38.4373 85.9582 37.9232 86.6537 37.3789C87.1073 37.0613 87.5307 36.7892 87.9843 36.4565C88.0736 36.3776 88.1697 36.3067 88.2716 36.2448L90.8874 34.2792L92.2483 33.2662L92.4599 33.0998L92.6263 32.9637L95.6503 30.5595L96.6332 29.7733H96.7541L101.29 26.1596L106.204 22.2282C107.868 20.9077 109.571 19.5771 111.315 18.2365C113.059 16.8958 114.823 15.5501 116.607 14.1993C118.391 12.8687 120.221 11.5381 122.096 10.2075C123.248 9.37683 124.444 8.60961 125.679 7.90926H125.785C126.847 7.33827 127.943 6.8333 129.066 6.39722C130.05 5.99846 131.06 5.66999 132.09 5.41436C133.004 5.19307 133.935 5.04646 134.873 4.9759H135.598H136.43L136.748 4.73397Z" fill="url(#paint1_linear_114_8860)"/>
<path id="Vector_3" d="M38.1928 15.7417L0.558228 8.8619L1.23864 8.13611L38.8733 14.9554L38.1928 15.7417Z" fill="url(#paint2_linear_114_8860)"/>
<g id="Group_2">
<g id="Clip path group">
<mask id="mask0_114_8860" style="mask-type:luminance" maskUnits="userSpaceOnUse" x="0" y="8" width="64" height="39">
<g id="clip-path-46">
<path id="Vector_4" d="M63.459 46.7988L27.7296 38.785C25.4678 38.2634 23.3139 37.3528 21.3639 36.0936C18.9843 34.5261 16.8103 32.6669 14.8924 30.5595C12.3765 27.788 10.0861 24.8201 8.04285 21.6839C5.65383 18.0701 3.17409 13.8213 0.482666 8.86182L38.1324 15.7416C40.5365 20.943 42.8197 25.4035 45.0273 29.1685C46.8894 32.4155 49.0133 35.5053 51.3779 38.407C53.1219 40.5764 55.1572 42.4947 57.426 44.1074C59.2439 45.3865 61.2928 46.3005 63.459 46.7988Z" fill="white"/>
</g>
</mask>
<g mask="url(#mask0_114_8860)">
<g id="Group_3">
<path id="Vector_5" d="M57.4865 44.1074C55.2178 42.4947 53.1825 40.5764 51.4384 38.407C49.0738 35.5053 46.95 32.4155 45.0878 29.1685C42.8803 25.4035 40.5517 20.943 38.193 15.7416L0.543213 8.86182C3.17416 13.8213 5.6539 18.0701 8.1034 21.6839C10.1466 24.8201 12.4371 27.788 14.9529 30.5595C16.8708 32.6669 19.0449 34.5261 21.4245 36.0936C23.3744 37.3528 25.5283 38.2634 27.7901 38.785L63.5196 46.7988C61.3534 46.3005 59.3045 45.3865 57.4865 44.1074Z" fill="url(#paint3_linear_114_8860)"/>
</g>
</g>
</g>
</g>
<path id="Vector_6" d="M135.19 4.77935C136.896 4.63341 138.614 4.80776 140.255 5.29344C141.719 5.74546 143.098 6.43509 144.338 7.3347C145.537 8.20551 146.624 9.22124 147.574 10.3588C148.509 11.4456 149.344 12.6146 150.069 13.8516C151.903 16.9879 153.34 20.3401 154.348 23.831C155.484 27.6123 156.333 31.4739 156.888 35.383C157.457 39.3067 157.805 43.2594 157.931 47.2223C158.041 50.8892 157.94 54.5594 157.629 58.2148L157.326 58.3357C157.627 54.7302 157.718 51.1104 157.599 47.4944C157.481 43.5762 157.133 39.6684 156.555 35.7913C156.009 31.9279 155.169 28.1117 154.045 24.3754C153.038 20.9323 151.611 17.6263 149.796 14.532C148.928 13.0822 147.915 11.7244 146.772 10.4797C145.757 9.37169 144.598 8.40539 143.325 7.60685C142.129 6.85188 140.815 6.30011 139.439 5.97387C138.018 5.6411 136.554 5.5289 135.099 5.64122C134.114 5.7228 133.138 5.88973 132.181 6.14017C131.124 6.4129 130.088 6.76158 129.081 7.18348C127.963 7.66686 126.873 8.21201 125.815 8.81646C124.697 9.45152 123.547 10.1925 122.368 11.0241C120.508 12.3547 118.679 13.7004 116.894 15.031C115.11 16.3616 113.326 17.7375 111.602 19.0832C109.879 20.4289 108.17 21.7746 106.507 23.0901L101.608 27.0215C98.5837 29.4861 95.5596 31.8297 92.8228 33.9919C90.086 36.1541 87.2888 38.1802 84.7183 39.9191C82.3053 41.5759 79.779 43.0613 77.1581 44.3645C74.9495 45.4929 72.6002 46.3218 70.1725 46.8291C67.5885 47.3766 64.9099 47.2832 62.3704 46.557C59.5124 45.6373 56.8977 44.087 54.7195 42.0208C51.6665 39.0977 49.0081 35.7886 46.8115 32.1775C43.5506 26.9117 40.6412 21.4363 38.1022 15.787L38.7675 15.0007C41.261 20.5761 44.1199 25.9808 47.3256 31.1796C49.485 34.7469 52.103 38.0155 55.1126 40.9019C57.2567 42.9669 59.8418 44.518 62.6728 45.4381C65.1696 46.1672 67.8075 46.271 70.3539 45.7405C72.7581 45.24 75.0863 44.4266 77.2791 43.3212C79.849 42.036 82.3248 40.5707 84.688 38.9363C87.2434 37.2277 89.9197 35.2469 92.7321 33.0696C95.5445 30.8923 98.4022 28.6241 101.457 26.1898L106.371 22.2585C108.034 20.938 109.737 19.6074 111.481 18.2667C113.225 16.926 114.989 15.5803 116.773 14.2296C118.558 12.899 120.387 11.5684 122.262 10.2378C123.436 9.39549 124.653 8.61328 125.906 7.89414C126.988 7.28108 128.109 6.74058 129.263 6.27625C130.245 5.86535 131.256 5.52678 132.287 5.26321C133.239 5.02081 134.211 4.85894 135.19 4.77935Z" fill="url(#paint4_linear_114_8860)"/>
</g>
<defs>
<linearGradient id="paint0_linear_114_8860" x1="132.166" y1="55.0999" x2="132.166" y2="-3.14376" gradientUnits="userSpaceOnUse">
<stop stop-color="#D4780F"/>
<stop offset="0.19" stop-color="#DB8B0F"/>
<stop offset="0.33" stop-color="#DE930F"/>
<stop offset="0.43" stop-color="#E7B121"/>
<stop offset="0.53" stop-color="#EECA30"/>
<stop offset="0.63" stop-color="#F2D939"/>
<stop offset="0.7" stop-color="#F4DE3C"/>
<stop offset="0.99" stop-color="#C26F0F"/>
</linearGradient>
<linearGradient id="paint1_linear_114_8860" x1="100.58" y1="-12.4881" x2="62.5972" y2="61.269" gradientUnits="userSpaceOnUse">
<stop stop-color="#E3A518"/>
<stop offset="0.14" stop-color="#E09B13"/>
<stop offset="0.33" stop-color="#DE930F"/>
<stop offset="0.44" stop-color="#E5AE33"/>
<stop offset="0.64" stop-color="#F4E780"/>
<stop offset="0.99" stop-color="#C26F0F"/>
</linearGradient>
<linearGradient id="paint2_linear_114_8860" x1="0.558228" y1="11.9464" x2="38.8733" y2="11.9464" gradientUnits="userSpaceOnUse">
<stop stop-color="#D4780F"/>
<stop offset="0.29" stop-color="#DB8B0F"/>
<stop offset="0.5" stop-color="#DE930F"/>
<stop offset="0.55" stop-color="#E7B121"/>
<stop offset="0.61" stop-color="#EECA30"/>
<stop offset="0.66" stop-color="#F2D939"/>
<stop offset="0.7" stop-color="#F4DE3C"/>
<stop offset="0.99" stop-color="#C26F0F"/>
</linearGradient>
<linearGradient id="paint3_linear_114_8860" x1="27.2912" y1="67.7707" x2="34.3372" y2="8.04532" gradientUnits="userSpaceOnUse">
<stop stop-color="#D4780F"/>
<stop offset="0.29" stop-color="#DB8B0F"/>
<stop offset="0.5" stop-color="#DE930F"/>
<stop offset="0.54" stop-color="#E5AC31"/>
<stop offset="0.58" stop-color="#EBC653"/>
<stop offset="0.63" stop-color="#F0D86C"/>
<stop offset="0.67" stop-color="#F3E37B"/>
<stop offset="0.7" stop-color="#F4E780"/>
<stop offset="0.99" stop-color="#C26F0F"/>
</linearGradient>
<linearGradient id="paint4_linear_114_8860" x1="38.1929" y1="31.5273" x2="157.977" y2="31.5273" gradientUnits="userSpaceOnUse">
<stop stop-color="#D4780F"/>
<stop offset="0.29" stop-color="#DB8B0F"/>
<stop offset="0.5" stop-color="#DE930F"/>
<stop offset="0.55" stop-color="#E7B121"/>
<stop offset="0.61" stop-color="#EECA30"/>
<stop offset="0.66" stop-color="#F2D939"/>
<stop offset="0.7" stop-color="#F4DE3C"/>
<stop offset="0.99" stop-color="#C26F0F"/>
</linearGradient>
</defs>
</svg>
